<?xml version="1.0" standalone="no"?>
<!DOCTYPE svg PUBLIC "-//W3C//DTD SVG 20010904//EN"
 "http://www.w3.org/TR/2001/REC-SVG-20010904/DTD/svg10.dtd">
<svg version="1.0" xmlns="http://www.w3.org/2000/svg"
 width="3000.000000pt" height="3000.000000pt" viewBox="0 0 3000.000000 3000.000000"
 preserveAspectRatio="xMidYMid meet">

<g transform="translate(0.000000,3000.000000) scale(0.100000,-0.100000)"
fill="#000000" stroke="none">
<path d="M14243 24328 c-396 -546 -1140 -1573 -1654 -2283 -514 -709 -1094
-1510 -1289 -1780 -195 -269 -365 -500 -377 -512 l-22 -23 -3226 0 c-2701 0
-3225 -2 -3225 -13 0 -8 13 -32 28 -53 124 -171 3116 -4375 3126 -4392 4 -7
-54 -97 -157 -240 -152 -211 -285 -397 -787 -1097 -106 -148 -255 -355 -330
-460 -75 -104 -224 -311 -330 -460 -106 -148 -210 -292 -230 -320 -21 -27
-123 -169 -227 -315 -171 -239 -304 -425 -747 -1040 -306 -426 -358 -502 -352
-516 3 -8 79 -117 169 -242 90 -125 197 -274 238 -331 41 -57 79 -106 84 -108
6 -2 40 41 77 94 114 167 162 235 218 313 30 42 60 83 65 91 6 9 25 36 42 60
18 24 61 83 95 131 74 103 120 168 165 229 18 24 255 357 527 739 272 382 508
713 524 735 34 47 847 1189 1201 1687 135 191 249 347 252 348 3 0 80 -105
170 -232 885 -1247 1410 -1989 1415 -2002 6 -16 -31 -100 -185 -419 -56 -115
-101 -210 -101 -212 0 -2 -45 -96 -100 -210 -55 -114 -100 -208 -100 -210 0
-1 -36 -76 -79 -166 -43 -90 -253 -531 -466 -979 -629 -1324 -668 -1405 -775
-1630 -157 -328 -183 -389 -159 -360 25 29 679 864 952 1215 102 132 190 245
194 250 5 6 43 55 86 110 43 55 92 118 110 140 17 22 85 107 149 190 116 148
132 169 186 239 30 38 582 740 647 822 22 27 85 107 140 177 55 69 103 127
106 127 4 0 398 -557 877 -1237 478 -681 936 -1332 1017 -1448 l148 -209 13
-346 c14 -356 29 -758 68 -1843 13 -345 25 -629 27 -632 2 -2 33 312 67 698
35 386 74 819 87 962 13 143 31 345 40 450 9 104 19 194 22 198 3 5 10 1 16
-9 6 -11 139 -203 297 -429 546 -781 609 -874 614 -919 3 -23 12 -158 21 -301
9 -143 22 -350 30 -460 8 -110 19 -296 26 -412 7 -117 14 -211 16 -209 7 6 26
309 53 821 13 255 20 336 29 330 4 -2 100 -131 212 -286 793 -1096 937 -1294
945 -1294 8 0 399 534 991 1354 l198 273 7 -38 c3 -22 9 -97 13 -169 3 -71 10
-197 15 -280 5 -82 14 -244 20 -360 6 -115 15 -259 19 -320 l7 -110 7 75 c7
74 10 144 43 1000 l17 435 107 155 c169 245 397 570 635 908 159 224 222 306
226 294 4 -10 16 -125 28 -257 18 -198 126 -1331 186 -1964 8 -85 17 -156 18
-158 2 -2 7 140 10 314 4 175 12 462 17 638 11 359 36 1262 46 1665 l7 265 55
80 c56 81 362 513 655 925 88 124 193 272 234 330 80 113 387 544 425 597 13
18 38 54 56 80 60 86 232 328 241 339 5 7 52 72 105 145 52 74 99 139 103 144
5 6 51 70 103 142 52 73 98 133 101 133 6 0 235 -287 1124 -1405 83 -104 230
-289 326 -410 96 -121 303 -382 459 -580 434 -550 711 -898 727 -915 8 -8 -18
50 -57 130 -40 80 -110 222 -155 315 -46 94 -194 395 -330 670 -314 635 -599
1212 -775 1570 -76 154 -271 550 -434 879 -163 329 -296 603 -296 608 0 5 98
147 218 316 380 535 750 1055 1017 1432 386 545 355 505 375 483 10 -10 323
-443 696 -963 1590 -2215 2446 -3405 2454 -3408 7 -3 476 626 487 654 3 7 -10
35 -29 61 -381 529 -603 837 -988 1373 -255 355 -491 683 -525 730 -34 47
-339 470 -677 940 -338 470 -684 952 -769 1070 -85 118 -159 221 -163 228 -4
7 0 24 10 40 17 26 386 547 873 1232 135 190 338 476 451 635 113 160 569 802
1014 1428 444 626 806 1140 804 1142 -1 1 -1432 0 -3178 -4 -1746 -3 -3191 -4
-3209 -1 -33 5 -62 43 -550 715 -284 391 -833 1147 -1221 1680 -387 534 -1064
1465 -1503 2070 -439 605 -805 1106 -812 1113 -10 11 -140 -162 -732 -980z
m1000 -705 c139 -192 492 -674 782 -1073 291 -399 691 -948 890 -1220 199
-272 538 -737 753 -1032 216 -295 392 -539 392 -542 0 -3 -462 -7 -1027 -8
l-1028 -3 95 -26 c111 -31 1031 -284 1105 -304 28 -7 84 -22 125 -34 41 -11
337 -92 658 -179 436 -119 587 -164 597 -178 8 -11 257 -359 554 -773 l541
-755 -17 -25 c-39 -60 -1377 -1938 -1392 -1954 -16 -17 -21 -12 -91 85 -40 57
-311 434 -600 838 -290 404 -590 823 -667 930 -77 107 -537 751 -1023 1430
-486 679 -890 1245 -899 1257 -9 12 -19 23 -23 23 -3 0 -30 -33 -59 -72 -107
-147 -1910 -2642 -2123 -2938 -120 -168 -236 -327 -256 -355 -21 -27 -84 -115
-142 -195 -635 -884 -776 -1076 -782 -1069 -1 2 -234 330 -516 729 -282 399
-597 842 -698 985 -102 143 -187 267 -189 275 -2 8 252 373 564 810 l568 794
770 212 c883 243 1535 423 1680 465 l100 29 -505 -5 c-278 -3 -722 -8 -987
-12 -287 -3 -483 -2 -483 3 0 5 120 173 266 374 146 201 291 401 322 444 31
44 72 99 91 124 31 41 579 795 1151 1582 130 179 362 498 515 710 153 212 344
475 425 585 80 110 175 241 210 290 62 88 90 125 96 125 1 0 117 -156 257
-347z m-6936 -4945 c691 -954 883 -1220 883 -1224 0 -2 -118 -169 -261 -371
-144 -202 -385 -542 -537 -755 -151 -214 -278 -388 -283 -388 -4 0 -28 28 -52
63 -24 34 -368 521 -764 1082 -1164 1650 -1293 1834 -1293 1839 0 6 405 10
1461 14 l656 2 190 -262z m12430 248 c6 -5 -534 -775 -542 -772 -5 1 -112 146
-238 322 -125 175 -249 348 -275 384 -26 36 -49 69 -51 73 -2 6 1097 -1 1106
-7z m3173 8 c0 -6 -103 -151 -1260 -1769 -463 -649 -848 -1186 -854 -1193 -9
-9 -41 28 -143 170 -733 1023 -953 1332 -953 1342 0 9 330 463 981 1349 l79
107 1075 0 c591 0 1075 -3 1075 -6z m-13650 -20 c0 -4 -533 -773 -557 -803 -2
-3 -10 4 -18 15 -63 86 -555 786 -555 790 0 2 254 4 565 4 311 0 565 -3 565
-6z m5242 -709 c101 -148 598 -875 1103 -1615 505 -740 976 -1430 1047 -1534
71 -103 127 -194 125 -200 -3 -6 -110 -160 -239 -341 -129 -182 -301 -423
-381 -537 -81 -115 -151 -208 -155 -208 -4 0 -85 192 -179 428 -276 687 -659
1637 -751 1862 l-47 115 -5 -180 c-3 -99 -7 -463 -8 -810 -1 -346 -5 -1098 -8
-1670 -6 -914 -8 -1043 -22 -1065 -30 -48 -755 -1075 -770 -1090 -13 -13 -14
31 -8 385 19 1197 37 2329 46 2945 5 382 14 976 20 1320 5 344 14 985 20 1425
10 722 17 1052 25 1043 1 -2 85 -124 187 -273z m-893 -2075 c6 -646 16 -1656
22 -2245 14 -1456 25 -2599 23 -2603 -2 -5 -88 107 -239 313 -77 104 -233 315
-346 469 l-206 279 -6 675 c-4 372 -7 1256 -7 1966 0 709 -4 1286 -8 1280 -5
-5 -30 -67 -56 -139 -116 -318 -895 -2384 -906 -2404 -5 -9 -28 16 -77 85
-125 177 -689 989 -696 1001 -6 9 1886 2780 2412 3533 l66 95 7 -565 c3 -311
11 -1094 17 -1740z m6141 -81 c294 -413 537 -756 539 -761 4 -13 117 147
-1191 -1688 -205 -289 -377 -525 -381 -525 -5 0 -35 52 -68 115 -81 154 -143
272 -509 970 -172 327 -323 614 -336 637 -13 23 -24 47 -24 53 0 7 255 366
567 799 899 1247 836 1163 856 1155 7 -2 253 -342 547 -755z m-10814 400 c127
-178 442 -622 701 -986 l471 -663 -265 -497 c-146 -274 -355 -667 -465 -873
-109 -206 -202 -378 -206 -382 -4 -4 -100 121 -212 280 -112 158 -462 651
-777 1095 -316 445 -576 814 -579 822 -3 8 89 147 217 327 815 1145 861 1209
873 1205 6 -2 115 -149 242 -328z m8737 -2810 c619 -968 686 -1074 692 -1090
4 -10 -114 -184 -351 -520 -197 -277 -614 -866 -927 -1309 -313 -443 -575
-811 -581 -818 -10 -10 -15 50 -25 270 -7 156 -16 378 -21 493 -6 116 -17 368
-25 560 -16 373 -36 836 -60 1368 l-15 328 415 562 c511 691 524 709 538 704
7 -2 168 -248 360 -548z m-6622 -105 l432 -616 -7 -141 c-4 -78 -13 -317 -21
-532 -8 -214 -24 -613 -35 -885 -11 -272 -24 -616 -30 -765 -23 -577 -29 -717
-33 -721 -5 -5 21 -41 -729 1031 -327 468 -702 1003 -833 1190 -308 438 -298
423 -291 441 3 9 114 174 245 367 131 194 323 476 426 627 102 151 239 353
303 447 64 95 122 173 129 173 6 0 206 -277 444 -616z m4793 -1614 c9 -91 25
-268 36 -395 12 -126 27 -288 35 -360 8 -71 21 -209 30 -305 8 -96 25 -269 36
-385 12 -115 25 -262 30 -325 5 -63 13 -128 19 -144 5 -15 7 -32 4 -37 -2 -5
0 -59 6 -121 5 -62 17 -185 25 -273 23 -256 29 -230 -74 -385 -50 -74 -99
-146 -109 -160 -11 -14 -22 -35 -26 -47 -4 -13 -11 -23 -16 -23 -7 0 -124
-166 -160 -227 -8 -14 -25 -37 -38 -51 -21 -24 -43 -54 -144 -202 -21 -30 -53
-73 -73 -95 l-36 -40 5 55 c3 30 8 125 11 210 5 145 11 265 50 995 8 154 22
420 30 590 8 171 20 389 25 485 6 96 15 275 20 398 5 123 17 352 26 510 l15
286 96 136 c52 74 107 148 122 163 l26 28 6 -58 c4 -32 14 -132 23 -223z
m-3763 202 c8 -11 56 -74 107 -141 63 -84 92 -131 92 -149 0 -15 7 -148 15
-297 18 -326 23 -420 35 -680 10 -203 29 -567 55 -1065 8 -151 19 -378 25
-505 10 -220 33 -649 46 -877 3 -60 3 -108 0 -108 -5 0 -71 96 -300 429 -32
47 -132 196 -222 330 l-164 244 6 86 c3 47 10 117 16 155 5 37 14 123 18 190
7 110 23 271 64 656 9 74 20 191 26 260 6 69 15 166 21 215 5 50 20 203 33
340 78 817 91 935 102 935 6 0 18 -8 25 -18z m2928 -2517 c7 -429 16 -1006 21
-1283 9 -490 9 -503 -10 -535 -11 -17 -24 -41 -29 -52 -6 -11 -26 -42 -46 -70
-42 -60 -164 -236 -185 -269 -8 -13 -31 -46 -49 -72 -63 -88 -159 -229 -577
-848 -104 -153 -193 -279 -198 -280 -6 0 -69 82 -141 184 -72 102 -317 445
-543 763 -227 318 -416 586 -420 595 -4 9 -5 177 -1 372 15 723 29 1533 40
2175 5 362 12 661 14 664 8 8 37 -23 72 -79 20 -30 145 -208 278 -395 412
-581 435 -613 435 -627 0 -8 -67 -218 -149 -468 -285 -869 -341 -1043 -338
-1046 2 -2 441 660 648 979 34 53 67 96 72 94 8 -2 358 -509 723 -1047 24 -36
44 -61 44 -55 0 12 -437 1455 -485 1602 -2 7 75 124 172 260 97 137 271 381
386 543 115 162 217 303 226 314 18 21 20 -39 40 -1419z"/>
</g>
</svg>
